<?xml version="1.0" encoding="utf-8"?>
<!-- Generator: Adobe Illustrator 25.4.1, SVG Export Plug-In . SVG Version: 6.00 Build 0)  -->
<svg version="1.1" xmlns="http://www.w3.org/2000/svg" xmlns:xlink="http://www.w3.org/1999/xlink" x="0px" y="0px"
	 viewBox="0 0 731.53 179.28" style="enable-background:new 0 0 731.53 179.28;" xml:space="preserve">
<style type="text/css">
	.st0{display:none;}
	.st1{display:inline;}
	.st2{fill:#58595B;}
	.st3{fill:#FFFFFF;}
	.st4{fill:#800000;}
</style>
<g id="DOES_NOT_PRINT" class="st0">
</g>
<g id="secondary">
	<g>
		<path class="st2" d="M517.75,89.5v-0.07c0-6.77,5.1-12.31,12.41-12.31c4.49,0,7.17,1.5,9.38,3.67l-3.33,3.84
			c-1.84-1.67-3.71-2.69-6.08-2.69c-4.01,0-6.9,3.33-6.9,7.41v0.07c0,4.08,2.82,7.48,6.9,7.48c2.72,0,4.39-1.09,6.25-2.79l3.33,3.37
			c-2.45,2.62-5.17,4.25-9.76,4.25C522.95,101.74,517.75,96.33,517.75,89.5z"/>
		<path class="st2" d="M542.26,89.5v-0.07c0-6.77,5.34-12.31,12.68-12.31c7.34,0,12.61,5.47,12.61,12.24v0.07
			c0,6.77-5.34,12.31-12.68,12.31C547.53,101.74,542.26,96.27,542.26,89.5z M562.08,89.5v-0.07c0-4.08-2.99-7.48-7.21-7.48
			c-4.22,0-7.14,3.33-7.14,7.41v0.07c0,4.08,2.99,7.48,7.21,7.48S562.08,93.58,562.08,89.5z"/>
		<path class="st2" d="M572.62,77.53h5.24v19.04h11.87v4.76h-17.1V77.53z"/>
		<path class="st2" d="M593.72,77.53h5.24v19.04h11.87v4.76h-17.1V77.53z"/>
		<path class="st2" d="M614.82,77.53h17.95v4.66h-12.75v4.83h11.22v4.66h-11.22v5h12.92v4.66h-18.12V77.53z"/>
		<path class="st2" d="M636.78,89.5v-0.07c0-6.77,5.27-12.31,12.48-12.31c4.28,0,6.87,1.16,9.35,3.26l-3.3,3.98
			c-1.84-1.53-3.47-2.41-6.22-2.41c-3.81,0-6.83,3.37-6.83,7.41v0.07c0,4.35,2.99,7.55,7.21,7.55c1.9,0,3.6-0.48,4.93-1.43v-3.4
			h-5.27v-4.52h10.33v10.33c-2.45,2.07-5.81,3.77-10.17,3.77C641.88,101.74,636.78,96.54,636.78,89.5z"/>
		<path class="st2" d="M665.23,77.53h17.95v4.66h-12.75v4.83h11.22v4.66h-11.22v5h12.92v4.66h-18.12V77.53z"/>
	</g>
</g>
<g id="rule">
	<g>
		<g>
			<rect x="497.66" y="48.17" width="1.33" height="82.76"/>
		</g>
	</g>
</g>
<g id="primary">
	<path class="st4" d="M478.01,52.49l0.03-0.05l0-0.06c-0.06-1.05-0.09-2.4-0.09-3.82v-0.28l-0.27,0.06
		c-0.35,0.08-2.14,0.08-3.87,0.08h-5.34c-1.09,0-2.06-0.02-3.35-0.09l-0.06,0l-0.05,0.03c-0.24,0.12-0.28,0.46-0.29,0.56
		c-0.02,0.25,0.06,0.46,0.2,0.55l0.56,0.09c1.47,0.18,1.55,0.34,1.55,3.44v10.44c0,3.07-0.07,3.23-1.54,3.4l-0.8,0.1L464.63,67
		c-0.17,0.16-0.19,0.43-0.16,0.63c0.03,0.22,0.13,0.38,0.27,0.45l0.05,0.03l0.06,0c1.36-0.06,2.34-0.09,3.62-0.09
		c1.17,0,2.18,0.03,3.85,0.09l0.06,0l0.05-0.03c0.19-0.09,0.27-0.35,0.28-0.56c0.01-0.25-0.06-0.45-0.21-0.54l-1.09-0.12
		c-1.48-0.13-1.57-0.32-1.57-3.4v-4.03c0-0.56,0-0.56,0.74-0.56h1.97c1.02,0,1.78,0.02,2.17,0.14c0.41,0.13,0.63,0.4,0.78,0.94
		l0.31,1.2l0.05,0.05c0.29,0.25,0.9,0.23,1.09-0.05l0.04-0.06v-0.07c0-0.3-0.02-0.69-0.05-1.12c-0.03-0.53-0.07-1.12-0.07-1.7
		c0-0.59,0.03-1.21,0.07-1.76c0.03-0.45,0.05-0.86,0.05-1.17V55.2l-0.04-0.06c-0.14-0.21-0.43-0.23-0.55-0.23
		c-0.24,0-0.45,0.08-0.56,0.21l-0.31,1.25c-0.16,0.7-0.36,0.77-0.58,0.85c-0.31,0.1-1.2,0.16-2.39,0.16h-1.97
		c-0.74,0-0.74,0-0.74-0.56v-6.12c0-0.94,0-0.94,0.65-0.94h1.77c1.2,0,2.15,0,2.76,0.17c1.24,0.32,1.62,1.16,1.87,2.58l0.01,0.08
		l0.06,0.05c0.11,0.1,0.27,0.15,0.44,0.15C477.63,52.8,477.9,52.7,478.01,52.49L478.01,52.49z M458.54,58.13
		c0-4.9-3.22-10.17-10.29-10.17c-6.02,0-10.55,4.5-10.55,10.46c0,5,3.62,10.06,10.55,10.06C454.11,68.48,458.54,64.03,458.54,58.13
		L458.54,58.13z M455.19,59.04c0,5.98-3.54,8.1-6.57,8.1c-5.99,0-7.58-6.06-7.58-9.64c0-6.05,3.62-8.19,6.71-8.19
		C453.24,49.31,455.19,54.55,455.19,59.04L455.19,59.04z M429.68,108.62c0,12.53,9.33,23.6,24.79,23.6
		c13.44,0,24.16-10.24,24.16-24.3c0-12.25-8.08-23.88-24.16-23.88C440.12,84.04,429.68,94.7,429.68,108.62L429.68,108.62z
		 M436.64,106.39c0-15.25,9.4-20.19,16.64-20.19c13.3,0,18.38,12.39,18.38,23.88c0,13.71-7.94,19.98-16.29,19.98
		C441.65,130.07,436.64,116.7,436.64,106.39L436.64,106.39z M423.04,49.46c0.15-0.13,0.23-0.34,0.21-0.56
		c-0.02-0.22-0.13-0.42-0.3-0.52l-0.06-0.04l-0.07,0c-2.06,0.12-3.28,0.12-5.46,0l-0.06,0l-0.05,0.03
		c-0.16,0.08-0.27,0.24-0.31,0.45c-0.04,0.23,0.03,0.48,0.19,0.63l0.06,0.06l0.6,0.07c0.56,0.07,0.91,0.21,1.02,0.28
		c-0.09,0.42-1.11,2.3-1.72,3.44l-0.13,0.25c-0.7,1.35-1.5,2.81-2.52,4.56c-0.76-1.38-1.51-2.9-2.23-4.37
		c-0.28-0.58-0.57-1.15-0.85-1.72c-0.21-0.42-0.86-1.9-0.88-2.13c0-0.06,0.13-0.18,1.03-0.3l0.45-0.07l0.05-0.05
		c0.16-0.16,0.22-0.44,0.16-0.69c-0.05-0.2-0.17-0.34-0.34-0.4l-0.04-0.01l-0.04,0c-0.71,0.06-1.75,0.08-3.09,0.08
		c-1.34,0-2.41-0.03-3.35-0.09l-0.07,0l-0.06,0.03c-0.14,0.08-0.24,0.23-0.27,0.43c-0.04,0.23,0.02,0.48,0.16,0.64l0.05,0.06
		l0.89,0.16c0.77,0.13,1.15,0.19,2.13,2.09l3.42,6.67c0.82,1.58,0.9,1.91,0.9,3.5v1.48c0,3.15-0.07,3.31-1.54,3.46l-0.98,0.09
		L409.88,67c-0.17,0.17-0.19,0.44-0.16,0.63c0.04,0.21,0.14,0.38,0.27,0.44l0.05,0.03l0.06,0c1.56-0.06,2.58-0.09,3.79-0.09
		c1.18,0,2.22,0.03,3.94,0.09l0.06,0l0.05-0.03c0.14-0.07,0.24-0.23,0.27-0.45c0.03-0.2,0.01-0.47-0.16-0.63L418,66.94l-1.18-0.09
		c-1.34-0.1-1.53-0.32-1.53-3.46v-1.51c0-2.17,0.06-2.39,1.33-4.59l1.83-3.16c0.17-0.29,0.32-0.56,0.48-0.83
		c1.14-1.99,1.97-3.43,3.2-3.65l0.87-0.16L423.04,49.46L423.04,49.46z M411.79,84.96c-1.19-0.28-4.88-1.04-8.84-1.04
		c-10.51,0-17.41,3.27-22.07,8.15c-4.32,4.59-6.27,10.58-6.27,16.5c0,6.13,2.23,11.63,6.41,15.8c5.36,5.43,12.95,7.73,21.24,7.73
		c3.76,0,8.77-0.84,12.46-1.81c1.32-0.35,2.58-0.63,3.41-0.63c0.28-0.21,0.28-0.63,0.07-0.83c-1.25-0.49-1.67-2.16-1.67-4.94v-3.9
		c0-3.55,0.07-5.5,2.99-5.85l1.11-0.14c0.49-0.42,0.42-1.46-0.07-1.74c-2.3,0.14-4.67,0.21-7.38,0.21c-4.11,0-7.94-0.07-9.96-0.21
		c-0.49,0.21-0.56,1.46,0,1.74l3.06,0.35c4.32,0.49,4.52,0.91,4.52,6.75v2.79c0,2.23-0.35,3.48-0.69,3.97
		c-0.77,1.18-3.34,2.09-7.66,2.09c-14,0-20.89-10.52-20.89-23.88C381.57,95.61,387.49,86,401,86c7.1,0,12.32,2.37,14.27,9.89
		c0.42,0.42,1.67,0.35,1.88-0.21c-0.63-4.18-1.05-7.8-1.05-10.09C415.27,85.72,413.11,85.24,411.79,84.96L411.79,84.96z M401,47.98
		l0.02-0.08l-0.04-0.08c-0.11-0.22-0.41-0.24-0.53-0.24c-0.07,0-0.18,0.01-0.27,0.05l-0.07,0.03l-0.04,0.07
		c-0.37,0.65-0.53,0.7-2.07,0.7h-11.99c-1.3,0-1.88-0.07-2-0.72L384,47.64l-0.05-0.05c-0.08-0.08-0.21-0.12-0.4-0.12
		c-0.07,0-0.3,0.01-0.43,0.09l-0.08,0.05l-0.02,0.09c-0.2,1.16-0.63,3-1.09,4.29l-0.03,0.09l0.04,0.09
		c0.18,0.35,0.77,0.52,1.09,0.28l0.05-0.04l0.02-0.05c0.29-0.67,0.57-1.31,1.25-1.93c0.64-0.59,2.09-0.67,3.42-0.67h1.6
		c0.65,0,0.65,0,0.65,0.7v12.97c0,3.14-0.18,3.28-1.59,3.4l-1.04,0.09l-0.1,0.03c-0.17,0.11-0.27,0.32-0.26,0.58
		c0.01,0.2,0.09,0.44,0.28,0.53l0.05,0.02l0.06,0c1.78-0.05,2.85-0.09,4.02-0.09c1.13,0,2.07,0.03,3.79,0.09l0.06,0l0.05-0.02
		c0.24-0.12,0.28-0.46,0.29-0.56c0.02-0.25-0.06-0.45-0.2-0.55l-1.03-0.12c-1.45-0.12-1.54-0.32-1.54-3.4V50.44
		c0-0.29,0-0.57,0.05-0.62c0.05-0.05,0.36-0.05,0.57-0.05h2.06c1.55,0,2.61,0.22,3.23,0.68c0.27,0.2,0.51,0.94,0.64,1.96l0.01,0.06
		l0.04,0.05c0.11,0.13,0.3,0.21,0.53,0.21c0.28,0,0.51-0.12,0.6-0.31l0.03-0.06l-0.01-0.06C400.49,51.48,400.69,49.14,401,47.98
		L401,47.98z M374.55,63.39V53.06c0-3.17,0.09-3.37,1.56-3.49l0.79-0.06l0.05-0.03c0.15-0.1,0.22-0.3,0.2-0.55
		c-0.01-0.1-0.05-0.44-0.28-0.56l-0.05-0.03l-0.06,0c-1.37,0.05-2.4,0.09-3.59,0.09c-1.24,0-2.24-0.03-3.65-0.09l-0.06,0l-0.05,0.03
		c-0.24,0.12-0.28,0.46-0.28,0.56c-0.02,0.25,0.06,0.45,0.2,0.55l0.05,0.03l0.78,0.06c1.48,0.13,1.57,0.32,1.57,3.49v10.33
		c0,3.12-0.07,3.29-1.57,3.46l-0.8,0.1L369.3,67c-0.17,0.16-0.19,0.43-0.16,0.63c0.03,0.21,0.13,0.38,0.27,0.45l0.05,0.03l0.06,0
		c1.48-0.06,2.45-0.09,3.65-0.09c1.15,0,2.11,0.03,3.59,0.09l0.06,0l0.05-0.03c0.24-0.12,0.28-0.46,0.28-0.56
		c0.02-0.25-0.06-0.45-0.2-0.55l-0.82-0.12C374.63,66.67,374.55,66.51,374.55,63.39L374.55,63.39z M368.69,129.24
		c-2.99-0.35-3.9-1.39-5.92-7.38l-9.54-27.99c-1.04-3.06-2.16-6.27-3.06-9.33c-0.14-0.49-0.63-0.63-1.04-0.63
		c-0.77,0.91-1.95,2.16-3.62,2.65c0.21,1.11-0.21,2.43-1.18,4.94l-7.1,18.8c-2.92,7.8-4.87,12.32-6.13,15.53
		c-0.97,2.51-2.51,3.27-4.18,3.41l-2.3,0.21c-0.42,0.35-0.28,1.46,0.14,1.74c1.88-0.07,4.38-0.21,6.68-0.21
		c3.27,0.07,5.43,0.07,7.24,0.21c0.62-0.28,0.62-1.39,0.14-1.74l-2.3-0.21c-1.67-0.14-2.02-0.56-2.02-1.39
		c0-0.77,0.49-2.65,1.53-5.78l2.44-7.31c0.49-1.46,0.9-1.67,2.65-1.67h10.51c2.09,0,2.37,0.21,2.86,1.74l3.06,9.47
		c0.56,1.67,0.91,2.92,0.91,3.69c0,0.7-0.97,1.12-2.44,1.25l-2.02,0.21c-0.49,0.35-0.42,1.46,0.14,1.74
		c2.02-0.07,4.66-0.21,8.01-0.21c3.13,0,5.57,0.07,8.42,0.21c0.35-0.28,0.49-1.39,0-1.74L368.69,129.24L368.69,129.24z
		 M350.73,110.3h-8.56c-1.95,0-2.02-0.07-1.46-1.67l4.39-12.11c0.77-2.09,1.46-3.76,1.67-4.11h0.14c0.42,0.84,1.04,2.72,1.6,4.39
		l3.76,11.35C352.89,110.02,352.75,110.3,350.73,110.3L350.73,110.3z M354.65,52.31c0-1.12,0.42-3,3.23-3
		c2.56,0,3.34,1.66,3.73,3.11l0.04,0.08c0.09,0.11,0.25,0.18,0.44,0.18c0.22,0,0.51-0.09,0.64-0.28l0.04-0.06v-0.07
		c0-1.19-0.24-2.84-0.53-3.62l-0.05-0.15h-0.15c-0.21,0-0.59-0.05-0.96-0.16c-0.69-0.19-1.78-0.39-2.75-0.39
		c-3.67,0-6.14,2.09-6.14,5.21c0,2.65,2.02,4.38,3.23,5.18l2.76,1.8c2,1.29,2.28,2.62,2.28,3.87c0,1.55-1.05,3.11-3.4,3.11
		c-2.94,0-4.22-2.26-4.78-4.16l-0.03-0.06c-0.09-0.13-0.24-0.2-0.44-0.2c-0.19,0-0.47,0.07-0.62,0.28l-0.04,0.06l0,0.08
		c0.06,1.31,0.43,3.46,0.81,4.16l0.03,0.05l0.05,0.03c0.57,0.33,2.16,1.1,4.64,1.1c3.83,0,6.4-2.25,6.4-5.59
		c0-2.32-1.22-4.2-3.73-5.76l-2.32-1.45C356.13,55.14,354.65,53.97,354.65,52.31L354.65,52.31z M347.34,68.15
		c0.13-0.11,0.2-0.28,0.18-0.45c-0.02-0.16-0.12-0.29-0.26-0.34l-0.06-0.01c-0.69-0.05-1.39-0.33-1.87-0.76
		c-2-1.67-3.59-4.12-5.79-7.66c-0.15-0.24-0.17-0.36-0.17-0.4c0.96-0.4,3.69-1.82,3.69-5.02c0-2.43-1.38-3.66-2.53-4.26
		c-1.45-0.79-3.32-0.9-4.95-0.9c-2.66,0-4.72,0.07-6.49,0.23L329,48.59c-0.17,0.08-0.28,0.27-0.3,0.5
		c-0.02,0.25,0.07,0.49,0.24,0.61l0.05,0.03l0.99,0.12c0.95,0.12,1.08,0.32,1.08,3.17v10.42c0,3.07-0.07,3.23-1.54,3.4l-0.81,0.1
		l-0.06,0.07c-0.16,0.19-0.18,0.47-0.14,0.66c0.04,0.2,0.14,0.34,0.27,0.41l0.05,0.03l0.06,0c1.29-0.05,2.34-0.09,3.62-0.09
		c1.2,0,2.21,0.03,3.44,0.09l0.06,0l0.05-0.03c0.21-0.11,0.27-0.38,0.28-0.5c0.03-0.26-0.04-0.48-0.18-0.6l-0.05-0.04l-0.67-0.1
		c-1.49-0.21-1.55-0.33-1.55-3.41v-3.66c0-0.41,0-0.41,1.14-0.41c1.11,0,1.49,0.27,1.88,0.83c0.44,0.64,0.95,1.45,1.45,2.24
		c0.52,0.82,1.01,1.6,1.39,2.14c1.99,2.84,3.5,3.75,6.19,3.75c0.56,0,1.05-0.06,1.34-0.15L347.34,68.15L347.34,68.15z M338.6,57.35
		c-0.83,0.63-1.96,0.71-2.85,0.71c-1.31,0-1.71-0.05-1.83-0.09c-0.03-0.12-0.03-0.46-0.03-0.79v-6.79c0-0.65,0-0.71,1.66-0.71
		c3.26,0,4.42,2.29,4.42,4.25C339.96,55.54,339.53,56.62,338.6,57.35L338.6,57.35z M323.61,63.89l0.01-0.07l-0.03-0.06
		c-0.12-0.28-0.43-0.4-0.68-0.4c-0.14,0-0.27,0.04-0.38,0.11l-0.07,0.08c-0.83,1.66-1.58,2.5-1.96,2.71
		c-0.62,0.31-1.5,0.41-3.61,0.41c-2.42,0-3.04-0.29-3.35-0.6c-0.41-0.44-0.49-1.38-0.49-2.86v-4.09c0-0.56,0-0.56,0.74-0.56h1.68
		c1.01,0,1.77,0.02,2.18,0.14c0.4,0.1,0.61,0.36,0.74,0.94l0.26,1.13l0.05,0.09c0.11,0.13,0.31,0.21,0.54,0.21
		c0.27,0,0.48-0.1,0.58-0.27l0.03-0.05v-0.06c0-0.28-0.02-0.66-0.05-1.08c-0.03-0.53-0.07-1.13-0.07-1.71
		c0-0.61,0.04-1.23,0.07-1.78c0.03-0.44,0.05-0.84,0.05-1.15v-0.06l-0.03-0.05c-0.1-0.17-0.31-0.27-0.58-0.27
		c-0.23,0-0.43,0.08-0.54,0.21l-0.28,1.29c-0.13,0.66-0.29,0.76-0.55,0.85c-0.31,0.1-1.18,0.16-2.39,0.16h-1.68
		c-0.74,0-0.74,0-0.74-0.59v-5.8c0-0.94,0-0.94,0.65-0.94h2.09c1.23,0,2.17,0.03,2.76,0.17c1.32,0.33,1.59,1.17,1.99,2.43l0.05,0.17
		l0.04,0.07c0.1,0.12,0.27,0.19,0.47,0.19c0.2,0,0.48-0.07,0.61-0.26l0.05-0.07l-0.04-0.43c-0.15-1.69-0.29-3.12-0.45-3.57
		l-0.07-0.19l-0.2,0.05c-0.32,0.08-2.12,0.08-3.86,0.08h-5.45c-1.12,0-2.07-0.02-3.41-0.09l-0.06,0l-0.05,0.03
		c-0.24,0.12-0.28,0.46-0.29,0.56c-0.02,0.25,0.06,0.46,0.2,0.55l0.56,0.09c1.49,0.18,1.57,0.37,1.57,3.44v10.44
		c0,3.14-0.18,3.28-1.6,3.4l-1.04,0.09L307.54,67c-0.16,0.16-0.19,0.43-0.16,0.63c0.03,0.22,0.13,0.38,0.27,0.45l0.05,0.03l0.06,0
		c1.68-0.06,2.69-0.09,3.94-0.09h2.61c2.53,0,5.07,0.03,7.77,0.09l0.14,0l0.06-0.13C322.67,67.16,323.4,64.91,323.61,63.89
		L323.61,63.89z M303.71,49.44c0.16-0.16,0.18-0.43,0.16-0.62c-0.03-0.21-0.12-0.37-0.26-0.45l-0.06-0.03l-0.07,0
		c-0.97,0.06-1.86,0.09-2.8,0.09c-1.14,0-2.23-0.03-3-0.09l-0.07,0l-0.06,0.03c-0.16,0.09-0.27,0.28-0.29,0.51
		c-0.02,0.23,0.05,0.45,0.2,0.57l0.05,0.05l0.59,0.06c1.01,0.12,1.11,0.33,1.11,0.33c0,0.19-0.03,0.48-0.24,1.05
		c-0.5,1.26-1.88,4.59-2.69,6.49c-0.22,0.49-0.49,1.14-0.79,1.85c-0.55,1.3-1.22,2.89-1.79,4.14c-1.37-3.15-2.64-6.32-3.92-9.55
		c-0.85-2.08-1.34-3.6-1.43-3.98c0.04-0.09,0.3-0.22,1.16-0.33l0.5-0.07l0.05-0.04c0.15-0.13,0.22-0.34,0.2-0.57
		c-0.02-0.23-0.13-0.42-0.29-0.52l-0.06-0.03l-0.07,0c-1.29,0.06-2.3,0.09-3.5,0.09c-1.21,0-2.14-0.03-3-0.09l-0.07,0l-0.06,0.04
		c-0.17,0.1-0.28,0.3-0.3,0.52c-0.02,0.22,0.06,0.43,0.21,0.56l0.05,0.05l0.59,0.06c1.13,0.13,1.51,0.65,2.17,2.24l5.11,12.59
		c0.61,1.51,1.05,2.8,1.32,3.83l0.03,0.11l0.1,0.04c0.17,0.07,0.34,0.1,0.52,0.1c0.17,0,0.32-0.04,0.44-0.12l0.06-0.04l0.02-0.07
		c0.5-1.56,1.89-4.98,3.01-7.55l1.57-3.57c1.34-3.05,2.46-5.35,3.23-6.65c0.37-0.6,0.76-0.86,1.33-0.91l0.96-0.06L303.71,49.44
		L303.71,49.44z M284.76,89.83c-5.29,4.11-8.77,10.72-8.77,18.45c0,8.98,4.32,15.32,9.89,19.15c5.08,3.41,11.07,4.66,17.34,4.66
		c4.46,0,9.47-1.04,11-1.6c0.77-0.28,1.6-0.56,2.44-0.7c1.04-1.32,2.85-5.92,3.34-9.54c-0.28-0.49-1.32-0.63-1.81-0.28
		c-1.6,4.11-5.57,9.96-14.55,9.96c-11.42,0-20.68-8.08-20.68-22.7c0-14.41,9.05-21.17,19.7-21.17c10.1,0,13.23,5.43,14.27,10.17
		c0.49,0.42,1.53,0.35,1.88-0.14c-0.56-4.25-0.9-8.63-0.97-10.24c-0.63,0.07-1.11-0.07-1.95-0.28c-3.27-0.91-8.56-1.67-12.32-1.67
		C296.32,83.91,289.85,85.86,284.76,89.83L284.76,89.83z M275.86,63.39V53.06c0-3.14,0.1-3.37,1.57-3.49l0.78-0.06l0.05-0.03
		c0.15-0.1,0.22-0.3,0.2-0.55c-0.01-0.1-0.05-0.44-0.29-0.56l-0.05-0.02l-0.06,0c-1.37,0.05-2.4,0.09-3.59,0.09
		c-1.25,0-2.24-0.03-3.65-0.09l-0.06,0l-0.05,0.02c-0.24,0.12-0.28,0.46-0.29,0.56c-0.02,0.25,0.06,0.45,0.2,0.55l0.05,0.03
		l0.78,0.06c1.46,0.12,1.57,0.35,1.57,3.49v10.33c0,3.12-0.07,3.29-1.57,3.46l-0.8,0.1L270.61,67c-0.17,0.17-0.19,0.44-0.16,0.63
		c0.03,0.21,0.13,0.38,0.27,0.45l0.05,0.03l0.06,0c1.47-0.06,2.44-0.09,3.65-0.09c1.15,0,2.15,0.03,3.59,0.09l0.06,0l0.05-0.03
		c0.24-0.12,0.28-0.46,0.29-0.56c0.01-0.25-0.06-0.45-0.2-0.55l-0.82-0.12C275.93,66.67,275.86,66.51,275.86,63.39L275.86,63.39z
		 M261.3,120.4V95.61c0-7.38,0.14-8.56,4.25-8.91l1.74-0.14c0.42-0.28,0.28-1.53-0.14-1.74c-3.48,0.14-5.85,0.21-8.63,0.21
		c-2.92,0-5.29-0.07-8.77-0.21c-0.42,0.21-0.56,1.46-0.14,1.74l1.74,0.14c4.11,0.35,4.25,1.53,4.25,8.91v24.79
		c0,7.38-0.14,8.35-4.25,8.84l-1.74,0.21c-0.42,0.42-0.28,1.53,0.14,1.74c3.48-0.14,5.85-0.21,8.77-0.21c2.79,0,5.15,0.07,8.63,0.21
		c0.42-0.21,0.56-1.46,0.14-1.74l-1.74-0.21C261.44,128.75,261.3,127.78,261.3,120.4L261.3,120.4z M264.89,49.44
		c0.14-0.14,0.21-0.37,0.18-0.59c-0.02-0.21-0.13-0.38-0.28-0.48l-0.06-0.04l-0.07,0c-0.95,0.06-1.71,0.09-2.98,0.09
		c-1.02,0-1.98-0.02-3.41-0.09l-0.04,0l-0.04,0.02c-0.17,0.06-0.29,0.22-0.33,0.44c-0.05,0.26,0.03,0.52,0.2,0.67l0.05,0.04
		l0.56,0.07c1,0.12,1.5,0.27,1.64,0.48c0.35,0.55,0.55,2.69,0.55,5.89v6.21c0,0.28,0,0.61-0.02,0.83c-1.01-1.04-2.06-2.22-3.37-3.68
		l-4.03-4.53c-2.87-3.22-4.51-5.33-4.89-6.28l-0.06-0.17l-0.18,0.03c-0.35,0.05-0.82,0.08-1.3,0.08c-0.51,0-2.05,0-3.26-0.09
		l-0.06,0l-0.06,0.03c-0.15,0.08-0.26,0.24-0.29,0.44c-0.04,0.24,0.03,0.49,0.18,0.64l0.06,0.06l0.57,0.07
		c0.77,0.1,1.35,0.31,1.66,0.63c0.54,0.59,0.58,1.13,0.58,1.94v8.65c0,1.4,0.01,4.69-0.36,5.62c-0.07,0.15-0.31,0.35-1.1,0.45
		l-0.86,0.09L244,67c-0.13,0.13-0.2,0.34-0.18,0.55c0.02,0.22,0.11,0.4,0.26,0.51l0.06,0.05l0.08,0c1.01-0.06,1.79-0.09,3.01-0.09
		c0.98,0,1.96,0.02,3.39,0.09l0.08,0l0.06-0.04c0.14-0.1,0.23-0.25,0.26-0.44c0.03-0.21-0.02-0.43-0.15-0.6l-0.06-0.08l-1-0.1
		c-0.7-0.06-1.18-0.22-1.3-0.44c-0.31-0.55-0.49-2.7-0.49-5.89v-6.32c0-0.52,0.01-1.07,0.06-1.47c0.46,0.52,1.23,1.42,1.92,2.24
		c0.47,0.56,0.91,1.08,1.2,1.41l6.73,7.66c2.24,2.55,3.31,3.81,3.7,4.36l0.07,0.09h0.12c0.38,0,0.66-0.18,0.76-0.47l0.02-0.05
		l-0.01-0.05c-0.04-0.34-0.09-1.49-0.09-5.05l0-7.33c0-1.49-0.01-4.58,0.41-5.48c0.04-0.07,0.38-0.32,1.46-0.49l0.48-0.07
		L264.89,49.44L264.89,49.44z M238.88,49.4c0.13-0.16,0.19-0.4,0.15-0.61c-0.03-0.18-0.12-0.33-0.27-0.42l-0.06-0.04l-0.07,0
		c-1.01,0.06-1.79,0.09-3.03,0.09c-1.11,0-2.19-0.03-3.29-0.09l-0.07,0l-0.06,0.04c-0.13,0.09-0.23,0.25-0.25,0.45
		c-0.03,0.22,0.02,0.43,0.15,0.57l0.06,0.07l0.82,0.06c0.67,0.05,1.12,0.23,1.27,0.5c0.34,0.6,0.52,2.69,0.52,5.89v3.34
		c0,3.42-0.97,7.49-5.58,7.49c-3.87,0-5.67-2.39-5.67-7.52v-6.27c0-3.08,0.1-3.31,1.54-3.43l0.75-0.06l0.05-0.03
		c0.14-0.1,0.22-0.29,0.2-0.54c-0.01-0.2-0.09-0.45-0.28-0.55l-0.05-0.02l-0.06,0c-1.38,0.06-2.35,0.09-3.56,0.09
		c-1.19,0-2.22-0.03-3.59-0.09l-0.06,0l-0.05,0.02c-0.19,0.09-0.27,0.34-0.29,0.54c-0.02,0.25,0.06,0.44,0.2,0.54l0.05,0.03
		l0.78,0.06c1.44,0.13,1.54,0.35,1.54,3.43v6.85c0,3.51,0.72,5.67,2.34,7.02c1.28,1.09,3.15,1.65,5.57,1.65
		c2.29,0,4.47-0.84,5.7-2.19c1.41-1.51,2.09-3.82,2.09-7.08v-3.28c0-1.47,0-4.92,0.39-5.83c0.13-0.29,0.63-0.52,1.26-0.57l0.79-0.06
		L238.88,49.4L238.88,49.4z M205.53,86.56c0.42-0.28,0.28-1.53-0.14-1.74c-2.99,0.14-5.36,0.21-8.08,0.21
		c-2.99,0-5.36-0.14-8.77-0.21c-0.42,0.21-0.56,1.46-0.14,1.74l1.81,0.14c3.62,0.28,4.11,1.46,4.11,8.77v25.06
		c0,7.31-0.14,8.01-4.04,8.7l-1.18,0.21c-0.42,0.42-0.28,1.53,0.14,1.74c2.72-0.07,5.08-0.21,8.08-0.21c2.71,0,5.08,0.07,8.84,0.21
		c0.42-0.21,0.56-1.46,0.14-1.74l-2.02-0.21c-3.9-0.42-4.25-1.39-4.25-8.7v-9.82c0-2.09,0.14-2.23,3.48-2.23h19.91
		c3.34,0,3.48,0.14,3.48,2.23v9.82c0,7.31,0,8.01-4.25,8.7l-1.32,0.21c-0.42,0.42-0.28,1.53,0.14,1.74
		c3.06-0.14,5.57-0.21,8.42-0.21c2.72,0,5.08,0.07,8.43,0.21c0.42-0.21,0.56-1.46,0.14-1.74l-1.67-0.21
		c-4.04-0.49-4.18-1.39-4.18-8.7V95.47c0-7.31,0.14-8.36,4.18-8.77l1.46-0.14c0.42-0.28,0.28-1.53-0.14-1.74
		c-3.13,0.14-5.5,0.21-8.22,0.21c-2.85,0-5.22-0.07-8.42-0.21c-0.42,0.21-0.56,1.46-0.14,1.74l1.32,0.14
		c4.11,0.42,4.25,1.46,4.25,8.77v8.01c0,2.16-0.14,2.23-3.48,2.23h-19.91c-3.34,0-3.48-0.07-3.48-2.23v-8.01
		c0-7.31,0.14-8.36,4.18-8.77L205.53,86.56L205.53,86.56z M202.72,63.89l0.01-0.07l-0.03-0.06c-0.13-0.28-0.43-0.4-0.68-0.4
		c-0.14,0-0.27,0.04-0.37,0.11l-0.07,0.08c-0.83,1.66-1.58,2.5-1.96,2.71c-0.62,0.31-1.5,0.41-3.61,0.41c-2.42,0-3.04-0.29-3.35-0.6
		c-0.41-0.44-0.49-1.38-0.49-2.86v-4.09c0-0.56,0-0.56,0.74-0.56h1.68c1.01,0,1.77,0.02,2.18,0.14c0.4,0.1,0.61,0.36,0.74,0.94
		l0.26,1.13l0.05,0.09c0.11,0.13,0.31,0.21,0.54,0.21c0.26,0,0.48-0.1,0.58-0.27l0.03-0.05v-0.06c0-0.28-0.02-0.66-0.05-1.08
		c-0.03-0.53-0.07-1.13-0.07-1.71c0-0.61,0.04-1.23,0.07-1.78c0.03-0.44,0.05-0.84,0.05-1.15v-0.06l-0.03-0.05
		c-0.1-0.17-0.31-0.27-0.58-0.27c-0.23,0-0.43,0.08-0.54,0.21l-0.28,1.29c-0.13,0.66-0.29,0.76-0.55,0.85
		c-0.31,0.1-1.18,0.16-2.39,0.16h-1.68c-0.74,0-0.74,0-0.74-0.59v-5.8c0-0.94,0-0.94,0.65-0.94h2.09c1.23,0,2.17,0.03,2.76,0.17
		c1.32,0.33,1.59,1.17,1.99,2.43l0.06,0.17l0.04,0.07c0.1,0.12,0.27,0.19,0.47,0.19c0.2,0,0.48-0.07,0.61-0.26l0.04-0.07l-0.04-0.43
		c-0.15-1.69-0.29-3.12-0.44-3.56l-0.07-0.19l-0.2,0.05c-0.32,0.08-2.12,0.08-3.86,0.08h-5.45c-1.12,0-2.07-0.02-3.41-0.09l-0.06,0
		l-0.05,0.03c-0.24,0.12-0.28,0.46-0.29,0.56c-0.02,0.25,0.06,0.46,0.2,0.55l0.56,0.09c1.49,0.18,1.57,0.37,1.57,3.44v10.44
		c0,3.14-0.18,3.28-1.6,3.4l-1.04,0.09L186.65,67c-0.17,0.17-0.19,0.44-0.16,0.63c0.03,0.21,0.13,0.38,0.27,0.45l0.05,0.03l0.06,0
		c1.68-0.06,2.69-0.09,3.94-0.09h2.61c2.53,0,5.07,0.03,7.77,0.09l0.14,0l0.06-0.13C201.79,67.17,202.52,64.92,202.72,63.89
		L202.72,63.89z M178.48,63.45V53c0-3.09,0.09-3.28,1.54-3.44l0.61-0.06l0.1-0.04c0.14-0.1,0.22-0.3,0.2-0.55
		c-0.01-0.1-0.05-0.44-0.28-0.56l-0.05-0.03l-0.06,0c-1.4,0.06-2.36,0.09-3.42,0.09c-1.26,0-2.27-0.03-3.5-0.09l-0.06,0l-0.05,0.03
		c-0.24,0.12-0.28,0.46-0.29,0.56c-0.02,0.25,0.06,0.45,0.2,0.55l0.65,0.09c1.48,0.15,1.57,0.34,1.57,3.44v3.33
		c0,0.71,0,0.71-1.23,0.71h-8.3c-1.23,0-1.23,0-1.23-0.71V53c0-3.09,0.09-3.28,1.54-3.44l0.55-0.06l0.1-0.04
		c0.15-0.1,0.22-0.3,0.2-0.55c-0.01-0.1-0.05-0.44-0.29-0.56l-0.05-0.03l-0.06,0c-1.32,0.06-2.29,0.09-3.36,0.09
		c-0.76,0-1.42-0.02-2.14-0.04c-0.46-0.01-0.95-0.03-1.51-0.04l-0.05,0l-0.05,0.02c-0.24,0.12-0.28,0.46-0.29,0.56
		c-0.02,0.25,0.06,0.46,0.2,0.55l0.05,0.03l0.81,0.06c1.28,0.1,1.51,0.36,1.51,3.43v10.44c0,3.02-0.06,3.15-1.5,3.41l-0.56,0.1
		L159.96,67c-0.17,0.17-0.19,0.44-0.16,0.63c0.03,0.21,0.13,0.38,0.27,0.45l0.05,0.02l0.06,0c0.4-0.01,0.78-0.02,1.16-0.04
		c0.69-0.02,1.4-0.05,2.2-0.05c1.09,0,2.02,0.03,3.68,0.09l0.06,0l0.05-0.03c0.19-0.09,0.27-0.35,0.28-0.56
		c0.01-0.25-0.06-0.45-0.2-0.54l-0.94-0.12c-1.39-0.15-1.57-0.29-1.57-3.4v-4.09c0-0.7,0-0.7,1.23-0.7h8.3c1.23,0,1.23,0,1.23,0.7
		v4.09c0,3.09-0.03,3.15-1.58,3.41l-0.62,0.1L173.39,67c-0.17,0.17-0.19,0.44-0.16,0.64c0.04,0.21,0.14,0.38,0.27,0.45l0.05,0.03
		l0.06,0c1.39-0.06,2.4-0.09,3.5-0.09c1.14,0,2.15,0.03,3.5,0.09l0.06,0l0.05-0.03c0.24-0.12,0.28-0.46,0.29-0.56
		c0.02-0.25-0.06-0.45-0.2-0.55l-0.79-0.12C178.55,66.67,178.48,66.51,178.48,63.45L178.48,63.45z M154.62,47.98l0.02-0.08
		l-0.04-0.08c-0.11-0.22-0.44-0.24-0.53-0.24c-0.07,0-0.18,0.01-0.27,0.05l-0.07,0.03l-0.04,0.07c-0.37,0.65-0.53,0.7-2.07,0.7
		h-11.99c-1.3,0-1.88-0.07-2-0.72l-0.01-0.07l-0.05-0.05c-0.08-0.08-0.21-0.12-0.4-0.12c-0.07,0-0.3,0.01-0.43,0.09l-0.08,0.05
		l-0.02,0.09c-0.2,1.16-0.63,2.99-1.09,4.29l-0.03,0.09l0.04,0.08c0.17,0.35,0.77,0.52,1.09,0.28l0.05-0.03l0.02-0.05
		c0.29-0.67,0.57-1.3,1.25-1.93c0.64-0.59,2.09-0.67,3.42-0.67h1.59c0.65,0,0.65,0,0.65,0.7v12.97c0,3.14-0.18,3.28-1.59,3.4
		l-1.04,0.09l-0.1,0.03c-0.17,0.11-0.27,0.32-0.26,0.58c0.01,0.2,0.09,0.44,0.28,0.53l0.05,0.03l0.06,0
		c1.78-0.05,2.85-0.09,4.02-0.09c1.13,0,2.07,0.03,3.79,0.09l0.06,0l0.05-0.03c0.19-0.09,0.27-0.35,0.28-0.56
		c0.02-0.25-0.06-0.45-0.2-0.54l-1.03-0.12c-1.45-0.12-1.54-0.32-1.54-3.4v-13c0-0.3,0-0.58,0.05-0.62
		c0.05-0.05,0.36-0.05,0.57-0.05h2.06c1.55,0,2.61,0.22,3.23,0.68c0.27,0.2,0.51,0.94,0.64,1.96l0.01,0.06l0.04,0.05
		c0.11,0.13,0.3,0.21,0.53,0.21c0.28,0,0.5-0.12,0.6-0.31l0.03-0.06l-0.01-0.06C154.11,51.48,154.31,49.14,154.62,47.98
		L154.62,47.98z M134.86,108.28c0,8.98,4.32,15.32,9.89,19.15c5.08,3.41,11.07,4.66,17.34,4.66c4.46,0,9.47-1.04,11-1.6
		c0.77-0.28,1.6-0.56,2.44-0.7c1.04-1.32,2.86-5.92,3.34-9.54c-0.28-0.49-1.32-0.63-1.81-0.28c-1.6,4.11-5.57,9.96-14.55,9.96
		c-11.42,0-20.68-8.08-20.68-22.7c0-14.41,9.05-21.17,19.7-21.17c10.1,0,13.23,5.43,14.27,10.17c0.49,0.42,1.53,0.35,1.88-0.14
		c-0.56-4.25-0.9-8.63-0.97-10.24c-0.63,0.07-1.11-0.07-1.95-0.28c-3.27-0.91-8.56-1.67-12.32-1.67c-7.24,0-13.72,1.95-18.8,5.92
		C138.34,93.94,134.86,100.56,134.86,108.28L134.86,108.28z M116.75,96.54l0-48.5c-38.96-3.76-68.37,0-68.37,0s0,48.49,0,48.51
		c3.1,32.88,33.9,36.74,34.19,36.68C88.07,132.24,113.89,127.05,116.75,96.54L116.75,96.54z M59.36,108.64
		c0.62,0.42,1.36,0.61,2.03,0.9c0.83,2.18,0.02,4.32-0.45,3.43C60.12,111.41,59.8,110.12,59.36,108.64L59.36,108.64z M59.4,84.8
		l-0.05-0.05c-0.06,0-4.33,2.69-7.1,1.4c2.07-1.14,9.22-5.69,11.18-6.98c0.92,0.2,1.3-0.13,1.59-0.34
		c-0.75,0.05-3.23,0.43-1.97-1.78c0.48,1.99,3.96,0.16,5.2-0.13c3.48-0.8,3.45,2.92,3.16,4.45c-0.11,0.57,1.07,0.98,1.64,0.9
		c-1,2.45-2.7,0.14-2.9,1.08c-0.08,0.38-1.22,0.68-1.22,1.62c0.01,1.29,0.51,0.58,0.56,1.58c0.05,0.97-0.41,0.21-0.31,1.26
		c0.17,1.66,2.92-0.22,4.05,0.23c0.57,0.23,0.95,0.73,1.5,0.63c0.16-0.13,0.09-0.76,0.06-0.99c-0.06-0.53-1.03-0.59-1.49-1.31
		c-0.4-0.63,0.45-2.52,0.91-3.08c0.66,3.12,3.58,2.14,4.02,5.43c0.28,0.93-1.01,1.96,0.03,3.47c-0.77,0.75-1.7,4.3-0.08,5.97
		c-0.27,0.76-0.63,2.5,0.8,3.52c-0.48,1.03-0.37,2.29,0.04,3.57c-0.9,0-0.72-5.02-6.08-5.18c-0.12-0.04-0.15,0.57,0.01,0.84
		c0.64,1.13,1.51,1.06,1.32,3.72c-0.06,0.91-0.6-0.16-0.88-0.41c-0.65-0.57-1.15-0.65-1.43-2.52c-2.18,1.71-1.97,3.78-1.83,4.83
		c0,0-0.48-1.31-1.03-2.66c-0.03-0.07,2.21-2.77,2.57-3.41c4.53-8.15-2.92,2.63-2.94,2.6c-0.4-0.93-0.75-1.73-0.99-1.98
		c0.06-0.11,1.3-1.5,1.86-2.67c3.5-7.29-2.08,2.43-2.28,2.25c-0.42-0.38-0.77-0.85-1.04-0.68c-0.06,1.12-0.33,0.97-0.25,2.11
		c-0.58,0.78-1.84,2-2.71,2.61c0,0-0.22-2.02-0.16-2.09c0.44-0.54,2.16-2.38,2.51-2.93c5.74-9.01-2.69,2.17-2.7,2.07
		c-0.06-0.36-0.52-0.95-1.01-1.45c0,0,1.86-2.53,2.32-3.48c3.49-7.18-2.81,3.18-2.88,3.14c-0.15-0.08-0.17-0.08-0.34-0.14
		c-0.18-0.06,0.19-2.07,0.44-3.28c0.47-2.39-0.8-0.46-1.14,3.32c-0.32,0.05-1.11,0.13-1.41,0.4c0.19,1.01,0.43,0.23,0.86,1.21
		c0.51,1.16-0.71,3.07,0.35,4.47c0.41,0.54,0.43,0.45,0.35,0.8c-0.65-0.05-1.05-0.06-1.46,0.5c-0.8-3.63-0.77-5.38-0.59-9.07
		c0.08-1.68,0.63-4.21,0.38-4.26c-0.24-0.05-4.04,9.74-4.96,11.66c-1.6-0.54,1-9.01,4.3-13.09c0.31-1.3-1.73,1.32-2.95,2.36
		c-1.12,0.95-2.54,2.2-4.08,1.77c1.98-2.1,6.53-6.02,7.03-7c0.42-0.84-3.1,2.61-6.83,1.33C53.77,89.67,59.39,86.8,59.4,84.8
		L59.4,84.8z M66.11,103.22c0.01,0.89-0.05,1.55,0.21,2.46c0.42,1.37,0.21,0.95-0.36,0.48c-0.46-0.51-0.88-0.93-1.1-1.52
		C64.79,104.21,65.13,104.19,66.11,103.22L66.11,103.22z M75.11,81.16c-0.54-0.93,0.65-1.81,0.65-1.81
		c-0.04,2.6,3.29,0.82,5.03,1.64c0.42,0.19,0.71,0.56,0.88,0.95C79.8,80.64,76.35,83.27,75.11,81.16L75.11,81.16z M55.52,60.34
		c-2.97,0-2.91-4.46,0-4.46C58.44,55.89,58.44,60.34,55.52,60.34L55.52,60.34z M55.52,69.25c-3.04,0-3.04-4.45,0-4.45
		C58.44,64.79,58.46,69.25,55.52,69.25L55.52,69.25z M61.16,59.63h-2.59v-2.55h2.59V59.63L61.16,59.63z M61.16,68.51h-2.59v-2.55
		h2.59V68.51L61.16,68.51z M82.09,72.9c0,0-2.71-1.47-5.89-1.68c-3.08-0.2-9.3,2.25-14.07,1.93V52.17c0,0,5.44,0.72,7.68-0.14
		c7.6-2.93,12.29,0.34,12.29,0.34V72.9L82.09,72.9z M87.35,76.31c0.13,0.79-0.6,0.99-0.6,0.99c1.14,0.27,1.69-0.41,1.91-0.84
		c0.44,1.82-1.4,1.93-1.97,2.04c0,0,0.93,0.27,0.98,0.87c0.12,1.54,1.11,1.41,1.33,1.29c-0.03,0.19-0.34,1.12-1.46,0.28
		c-0.19,0.19,0.3,0.47,0.4,1.24c0.13,0.97,0.09,1.86,1.21,2.46c-0.69,0.54-1.49-0.87-1.56-0.71c-0.08,0.19,0.95,0.71-0.18,3.39
		c-0.52-0.3-0.23-0.24-0.83-0.96c-0.46-0.38-0.64-0.47-0.26,0.16c0.67,0.84,0.83,2.75,0.6,3.27c-0.55-0.24-0.41-0.68-1.06-1.28
		c-0.06,0.26,0.2,1.52,0.87,2.13c1.16,1.05,1.57,2.32,1.6,2.57c0.09,0.95-0.21,2.21-0.32,3.44c-0.56-0.08-1.03-1.66-1.17-1.57
		c-0.17,0.11,0.07,1.55,1.12,2.53c0.51,1.49,0.3,2.29,0.17,2.34c-0.18,0.08-0.75-1.52-1.05-1.24c1.5,3.81,0.45,5.14,0.05,6.31
		c-0.31-1.2-0.47-2.1-0.85-3.47c-0.82,0.64-1.01,1.59-2.01,2.46c0-1.55-0.9-5.3-1.61-6.18c-0.03-0.04-1.29,3.36-1.86,4.88
		c-0.74,1.96-0.86,4.41,0,6.32c-1.85-2.63-2.05-7.52-0.45-8.18c0.14-0.35-0.1-1.5-0.45-1.36c-0.1,0.56-0.03,1.05-0.5,1.6
		c-1.22-0.36-0.67-1.85-0.56-2.35c1.59-1.9,0.6-2.34,0.52-2.3c-0.17,0.44-0.32,0.97-0.81,1.17c-1.02-1.75-0.37-4.5,1.57-6.55
		c0.08-0.77-0.87,0.57-1.48,0.52c-0.16-1.48,0.37-4.04,3.11-4.13c-0.52-0.15-0.8-0.25-0.93-0.68c0.83-0.12,3.42-0.32,2.99-2.36
		c-0.25,0.25-0.32,0.61-1,1.02c-0.45,0.28-0.95,0.3-1.21-0.1c1.2-0.4,0.8-1.86-0.76-1.43c-0.48,0.13-1.18-0.37-1.22-0.93
		c0.35,0.35,1.06,0.09,1.47-0.18c1.77-1.15,2.84,0.51,3.08,0.87c0.07,0,0.79-1.66-1.71-2.11c-0.21-0.58-0.78-1.62-2.48-1.49
		c-0.56-1.98-2.26-1-2.2-0.11c-1.8-1.33,0.03-3,0.76-3.26c0.5,0.04,0.39,1.64,1.28,1.37c0.21-0.06-0.69-1.1-0.34-1.57
		c0.81-0.46,0.79,0.59,1.19,0.2c0.2-0.69,1-1.08,1.65-1.16C84.15,75.28,85.58,77.3,87.35,76.31L87.35,76.31z M103.92,73.22
		c-4,0.27-12.3-2-14.41-2c-4.35,0-6.46,1.7-6.46,1.7s0.01-19.76,0-20.47c0,0,5.72-2.68,9.88-1.15c5.1,1.88,10.99,1.05,10.99,1.05
		V73.22L103.92,73.22z M109.19,65.15c2.2-0.32,2.54,2.28,2.54,2.28h0c-0.54-0.43-1.63-0.63-2.37-0.15c-2.46,1.59-4.68,1.6-4.68,1.6
		v-3.97C104.67,64.91,105.13,65.74,109.19,65.15L109.19,65.15z M111.8,59.71c-0.02-0.12-0.04-0.3-0.08-0.55
		c-0.06-0.4-1.2-0.63-2-0.28c-1.13,0.49-3.95,2.11-4.98,1.8v-3.97c2.54,1.1,3.54,0.11,4.35,0.11c2.51,0,2.64,2.34,2.64,2.34
		C111.76,59.41,111.78,59.59,111.8,59.71L111.8,59.71z M108.96,100.9c-0.74,0.19-2.7,0.98-3.17,1.74c0.25-4.24-1.12-8.39-1.55-9.4
		c-0.85-1.96,0.38,4.55,0.46,6.06c0,0.07-7.03-9.04-2.78-2.03c1.1,1.82,2.82,3,2.82,3.03c0.03,1.26-0.06,2.19-0.3,2.87
		c-0.43,0.34-9.57-12.17-4.52-3.5c0.63,1.07,4.29,4.33,4.26,4.39c-0.23,0.49-0.64,1.21-1.21,1.74c-0.1-0.1-2.11-1.58-2.12-1.67
		c-0.15-0.97-0.16-1.88-1.35-1.19c0,0-4.5-5.24-2.42-1.57c0.91,1.61,1.51,1.78,1.75,2.07c0,0-0.7,0.95-0.92,1.95
		c-0.09,0.4-3.91-4.23-2.41-1.32c0.48,0.93,2.22,1.95,2.2,2.02c-0.18,0.61-0.36,1.19-0.55,1.57c-0.24,0.48-3.59,3.15-3.58,3.15
		c0,0,0.66-2.12,2.08-3.15c0.81-0.59,0.81-0.46,1.35-0.8c-0.01-0.31-0.31-0.82-0.7-0.96c-0.49-0.17-2.07,0.11-2.07,0.11
		c0.15-0.79-0.55-2.5-0.54-4.38c-0.6,0.06-1.64,0.98-1.9,1.51c-0.18,3.12-0.86,2.18-1.49,4.42c-0.69-0.94,0.05-2.29-0.63-3.17
		c-0.93-1.21-1.07-2.03-1.21-3.51c0.22-0.12,1.16-1.17,0.3-3.36c-0.14-3.45,1.4-4.77-1.36-7.19c0.23-0.07,0.4-1.8,0.4-1.81
		c2.03,1.08,1.63-1.26,2.42-1.71c1.26-0.73,1.03-1.49,0.46-2.43c3.59,1.02-0.16,3.48,1.46,3.53c1.18,0.04,1.97-0.26,2.48-1.06
		c0.55-0.84-0.09-1.35,1.43-2.71c0.15-0.14,0.56-1.04-0.65-1.29c-0.26-0.05,0-1.09,0-1.09c-0.97,0.82-1.27,1.97-2.83,1.24
		c-0.8-0.37-1.31-0.01-1.64,0.15c0,0-0.17-0.65,0.49-0.87c1.7-0.57,2.12-1.25,2.03-1.62c-0.23-0.89-0.3,0-0.25-0.93
		c0.02-0.37,0.45-0.87,0.81-1.3c1.16-1.39,1.97-0.87,2.27-0.75c0.67-0.52,0.79-0.48,1.41-0.73c1.07-0.42,3.39,0.28,4.68,0.88
		c0.63,0.28,1.38,0.46,2.11,0.29c-0.01,0.38-0.27,0.58-0.54,0.66c-0.4,0.13-0.89,0-0.85,0.29c0.02,0.17,0.57,0.2,0.92,0.3
		c1.92,0.52,4.4,2.24,2.77,1.88c-0.19-0.04,1.18,1.02,2.21,2.41l3.66,3.56c-0.17,0.2-1.45,0.02-5.52-3.79
		c-0.58,0.52,4.94,4.68,7.22,9.1c-0.2,0.14-3.04-0.9-4.06-1.95c-1.58-1.63-3.39-5.78-4.14-5.18c-0.09,0.03,3,4.85,4.53,7.7
		c0.77,1.44,1.4,3.51,1.46,5.07c0.25,7.69-0.91,7.1-0.91,7.1c-1.8-6.06-2.64-13.09-5.27-16.34
		C104.94,87.63,108.79,94.61,108.96,100.9L108.96,100.9z M101,107.81c-0.81,0.71-1.34,0.97-1.17,0.61c0.2-0.39,0.34-0.73,0.45-1.02
		C100.32,107.3,101,107.81,101,107.81L101,107.81z M100.46,106.85c0.18-0.65,0.18-1.09,0.26-1.66c0.04-0.24,0.04-0.22,0.05-0.42
		c0-0.07,1.76,1.46,1.86,1.52c-0.44,0.55-0.82,0.75-1.24,1.14C101.1,107.18,100.45,106.92,100.46,106.85L100.46,106.85z
		 M106.17,108.81c-2.44,2.41-6.1,1.54-8.98,2.83c-2.61,0.95-4.51,3.37-7.25,3.98c-0.81,0.26-0.94,0.66-0.43,0.65
		c0.3-0.01,1.97,1.74,4.64,0.39c0.89-0.45,3.66-1.99,4.13-2.08c-1.5,1.43-2.25,2.71-3.6,3.46c-0.82,0.46-4.16,1.66-7.5,1.01
		c-1.48-0.29-2.61,1.08-2.24,1.04c0.79-0.21,1.68-0.1,2.21,0.59c0.97,0.76,2.37,1.7,3.58,0.3c0.4-0.47,2.31-1.46,4.11,0.36
		c-1.91-0.1-1.72,3.34-5.35,2.94c-1.34-0.01-4.31-3.08-5.15-2.13c-1.5,1.68,3.22,3.28,1.18,5.4c-1.85,1.91-4.05-1.52-4.05-1.52
		c1.15,0.48,3.28,0.79,2.34-1.08c-0.37-0.74-1.08-1.41-1.08-2.79c-0.16-0.68-4.39,5.44-7.18,2.67c-1.1-1.09-3.32-3.47-5.34-4.38
		c5.33-0.45,6.15,1.68,6.4,2.02c1.71,2.3,3.28-0.04,3.65-0.45c0.56-0.63,1.34-1.5,1.06-1.63c-2.07-0.98-4.43-1.19-6.2-0.38
		c3.78-5.2,6.72-0.33,6.72-0.33c0.41,0.26-0.11-3.08-3.84-3.27c-2.33-0.11-4.39,1.99-6,1.99c-1.31,0-5.28-2.68-6.21-5.06
		c2.31,1.73,5.26,2.72,7.09,1.63c3.45-2.06,7.8,1.05,8.01,0.67c-0.97-0.75-3.16-3.7-9.09-2.02c-2.3,1.32-3.27-0.98-4.68-1.02
		c2.4-2.13,4.07-1.05,4.91-0.98c0.2,0-1-0.99-1.84-1.08c-6.55-0.68-10.7-2.48-10.7-2.48c-0.03,0,0.55-1.32,3.36-0.37
		c0,0-2.53-1.55-2.5-3.53c0.08-1.22,0.67-2.54-0.26-3.56c3.8-0.16,1.1,5.15,3.77,6.51c0.06,0.02-0.79-1.27,0.4-2.27
		c0.55,1.56,1.91,2.36,2.86,2.61c0.22-0.12,0.5-0.6,0.5-0.6c-1-1.66-1.14-3.6-0.87-5.81l0.04-0.02c0.22,0.01,0.58,0.76,0.84,1.31
		c0.55,1.19,0.54,2.91,1.65,4.32c0.61,0.78,0.99,1.56,1.54,1.93c0.24-0.55,0.06-1.5,0.02-1.75c-0.12-0.9-0.69-2.48,0.85-3.87
		c0.72,2.08,1.7,1.48,1.83,2.47c0.18,1.4,0.12,1.17-0.02,2.25c0.07,1.48,1.42,1.89,2.61,2.84c2.69,1.46,4.47,2.25,5.64,4.13
		c0.57-3.16-7.96-3.79-6.86-9.89c-0.11-2.44,0.3-2.64-1.42-4.13c3.42,0.1,5.29,5.72,5.47,6.74c0.34,1.88,1.49,1.98,3.06,4.44
		c0.23,0.08-2.81-6.55,0.81-12.22c0,0,1.22,2.95,0.64,4.88c-0.35,1.16-0.03,2.45,0.04,3.18c0.07,0.74-0.15-2.69,2.44-4.47
		c0.16,1.3,1.41,3.31,0.23,5.47c-1.44,2.62-1.54,1.68-1.56,4.91c0.13-0.06,0.5-2.22,1.49-3.46c2.08-2.6,0.59-4,2.63-6.26
		c0.16,1.13,0.45,0.68,0.57,1.69c0.27,2.25-2.08,4.72-1.56,4.64c0.6-0.08,1.56-0.61,1.88-2.32c0,0,0.87,1.56,0.07,2.08
		c-1.44,0.94-1.73,1.96-1.51,3.1c1.15-1.38,2.72-2.9,2.45-4.86c0.13-1.18,1.41-1.66,1.67-4.41c0.04-0.46,0.5-1.01,0.95-1.25
		c-0.2,1.54,1,3.14-0.36,5.02c0.31,0.17,1.46-1.47,3.15-0.87c-3.38,0.61-2.39,4.27-4.98,5.97c-0.78,0.51-0.65,1.09-0.88,1.15
		c2.31-0.13,4.1-2.89,4.4-3.1c2.32-1.57,2.83-1.81,3.76-4.36c0.36-0.97,0.1-1.4,1.39-2.7c0.57,1.29-0.26,3.96-0.45,4.54
		c-0.42,1.23-1.88,2.29-1.57,2.29c6.23-2.75,6.15-4.6,7.64-6.57c0.45-0.75,2.66-2.06,3.49-2.18c-0.2,0.41-1.06,1.1-1.1,1.85
		c-0.08,1.38-0.52,2.22-1.22,3.32c0.39,0.48,1.13-0.91,1.89-0.21C107.4,107.03,106.95,108.15,106.17,108.81L106.17,108.81z
		 M107.21,108.44c-0.37,1.82-1,3.5-2.09,5.06c-0.76,1.11-1.08-1.05-0.42-3.13C105.64,110,106.57,109.28,107.21,108.44L107.21,108.44
		z M102.46,62.39c-0.14-0.05-0.45-0.11-0.64-0.11c-0.19,0-0.29,0.27-0.06,0.34c0.15,0.04,0.43,0.09,0.71,0.1
		C102.66,62.73,102.6,62.44,102.46,62.39L102.46,62.39z M101.76,63.26c0.15,0.04,0.42,0.08,0.7,0.11c0.18,0.02,0.12-0.27-0.02-0.33
		c-0.14-0.05-0.44-0.11-0.63-0.11C101.61,62.92,101.52,63.19,101.76,63.26L101.76,63.26z M101.76,67.23
		c-0.14-0.16-0.51-0.47-0.84-0.71c-0.19,0.16-0.58,0.44-0.84,0.57c-0.19-0.21-0.43-0.5-0.81-0.79c-0.23,0.16-0.88,0.75-1.16,0.91
		c0.4,0.01,0.99,0.14,1.02,0.51c0.01,0.3-0.02,2.18,0,2.52c0.24,0.05,0.53,0.03,0.89,0.01c0.02-0.27,0.01-2.43,0.02-2.69
		c0.12-0.07,0.26-0.13,0.33-0.19c0.14,0.1,0.56,0.58,0.8,0.71c0.17-0.13,0.6-0.51,0.79-0.69C102.15,67.19,101.93,67.07,101.76,67.23
		L101.76,67.23z M100.66,64.07c0.23-0.41,0.56-1.08,0.54-1.59c-0.03-0.62-0.41-1.55-1.33-1.85c-1.16,0.41-1.88,1.33-1.91,2.41
		c-0.02,0.63,0.52,1.94,1.63,1.95C99.94,64.66,100.3,64.31,100.66,64.07L100.66,64.07z M99.96,64.32c-0.21-0.1-1-0.71-1.18-1.17
		c-0.23-0.62-0.23-1.31,0.43-1.72c0.52,0.19,1.12,0.7,1.18,1.17C100.46,63.2,100.28,63.92,99.96,64.32L99.96,64.32z M99.93,59.49
		l0.83-0.91c0,0-0.37-0.29-0.59-0.56c0-0.19,0-2.02,0.08-2.11c-0.63-0.56-1.08-0.63-1.36-0.59c-0.51,0.08-1.03,0.73-1.19,0.95
		c-0.12,0.17-0.09,0.39,0,0.47c0.1,0.08,0.23,0.17,0.37,0.25c-0.02-0.01-0.04-0.03-0.07-0.04c-0.24,0.22-0.58,0.87-0.57,1.3
		c0,0.44,0.4,1.08,0.67,1.31c0.29-0.23,0.73-0.61,1.37-0.73C99.54,59.13,99.68,59.32,99.93,59.49L99.93,59.49z M99.42,57.39
		c-0.41-0.15-1.22-0.53-1.51-0.77c-0.08-0.06-0.09-0.1,0.01-0.25c0.19-0.28,0.4-0.52,0.55-0.51c0.13,0,0.95,0.44,0.92,0.67
		C99.42,56.7,99.43,57.04,99.42,57.39L99.42,57.39z M99.43,58.63c-0.21,0.01-0.4,0.07-0.67,0.2c-0.22-0.18-0.81-0.89-0.38-1.67
		c-0.06-0.04-0.12-0.07-0.18-0.1c0.4,0.22,0.86,0.42,1.22,0.53c0,0.31-0.01,0.6-0.01,0.7C99.41,58.41,99.42,58.52,99.43,58.63
		L99.43,58.63z M97.03,54.87c-0.2,0-1.52,0.03-1.55-0.05c-0.1-0.28-0.12-0.63,0.11-1.1c0.11-0.24-0.11-0.34-0.19-0.1
		c-0.08,0.23-0.74,1.15-1.43,1.44c-0.35,0.14,0.43,0.46,0.38,0.45c0,0.88,0.12,2.2,0.31,2.72c0.12,0.31,0.47,0.83,0.72,0.67
		c0.16-0.1,0.5-0.78,0.61-0.87c0.19-0.16,0-0.42-0.15-0.26c-0.18,0.15-0.33-0.09-0.37-0.25c-0.06-0.16-0.22-2.09-0.14-2.13
		c0,0,1.56-0.19,1.71-0.19C97.14,55.22,97.15,54.87,97.03,54.87L97.03,54.87z M92.75,58.44l0.64-0.84
		c-0.47-0.08-0.66-0.17-0.99-0.54l0.01-2.08l-0.66-0.66l-0.23,0.02l-1.03,0.91c-0.11,0.16,0.17,0.16,0.31-0.03l0.75,0.43l0.03,2.01
		c0.06,0.24,0.26,0.47,0.55,0.77H92.75L92.75,58.44z M92.19,53.83l0.36-0.31v-0.5l-0.49-0.47l-0.48,0.41l0.01,0.58l0.3,0.3H92.19
		L92.19,53.83z M90.54,53.18c-0.28-0.03-1.19,0.04-1.52,0.1c-0.33,0.05-0.33,0.21-0.05,0.24c0.27,0.03,0.33,0.09,0.47,0.45
		c0.13,0.37-0.53,2.05-0.69,2.45c-0.19-0.29-0.89-1.83-0.89-2.04c0-0.15,0.31-0.3,0.44-0.34c0.26-0.08,0.25-0.26,0.06-0.3
		c-0.55-0.08-2.48-0.25-2.82-0.29c-0.25-0.02-0.36,0.26-0.06,0.26c0.31,0.01,0.63-0.08,0.97,0.41c0.39,0.56,1.61,3.19,1.9,4.29
		c0.14-0.23,1.36-3.77,1.43-4.14c0.09-0.37,0.34-0.72,0.7-0.83C90.85,53.37,90.82,53.21,90.54,53.18L90.54,53.18z M84.75,61.73
		c0.02,1.47,0.6,1.6,1.27,1.98c0.63,0.36,1.7,0.29,2.5,0.08c0.3-0.09,0.47-0.11,0.46,0.16c0,0.16,0.23,0.13,0.23,0.01
		c0-0.12,0.01-1.35,0.01-1.49c0-0.15-0.22-0.13-0.22,0c0,0.21,0,0.27-0.2,0.56c-0.55,0.81-1.92,0.78-2.66-0.21
		c-0.25-0.34-0.48-0.79-0.19-0.88c0.29-0.09,1.17,0.09,1.76,0.14c0.35,0.02,1.16,0.1,1.26,0.16c0.09,0.07,0.23,0.15,0.23-0.02
		c0.01-0.17,0.01-0.74,0.01-0.91c0-0.17-0.13-0.09-0.23-0.03c-0.1,0.07-0.96,0.21-1.31,0.27c-0.35,0.06-1.42,0.15-1.7,0.05
		c-0.29-0.1-0.19-0.67,0.06-1c0.75-0.99,2.25-0.92,2.79-0.1C89,60.79,89,60.85,89,61.07c0,0.13,0.22,0.14,0.22,0
		c0.01-0.14,0.02-1.63,0.02-1.75c0-0.12-0.22-0.16-0.22,0c0,0.11-0.24,0.17-0.48,0.11c-0.47-0.15-1.83,0.06-2.43,0.4
		C85.57,60.13,84.74,60.84,84.75,61.73L84.75,61.73z M85.01,64.34c0.02,0.42,0.17,4.02,0.12,4.52c-0.03,0.29,0.35,0.59,0.7,0.83
		c0.17-0.21,0.54-0.74,0.84-0.97c0.18-0.15,0.06-0.24-0.08-0.19c-0.28,0.13-0.55,0.03-0.58-0.29c-0.03-0.32-0.03-3.41,0-3.86
		C85.81,64.37,85.21,64.36,85.01,64.34L85.01,64.34z M87.98,67.28c-0.24,0.22-0.67,0.81-0.66,1.24c0.01,0.44,0.22,0.87,0.47,1.1
		c0.44-0.3,0.71-0.72,1.44-1c0.09,0.34,0.33,0.39,0.61,0.6c0.17-0.18,0.79-0.94,0.92-1.08c0.14-0.13,0.06-0.26-0.14-0.13
		c-0.19,0.13-0.33,0.05-0.65-0.3c0.01-0.19-0.02-1.74,0.05-1.82c-0.3-0.32-0.57-0.75-0.92-0.72c-0.51,0.04-1.16,0.93-1.32,1.16
		c-0.13,0.17,0.01,0.8,0.1,0.88C87.94,67.25,87.95,67.26,87.98,67.28L87.98,67.28z M88.34,67.54c0.28,0.16,0.43,0.06,0.87,0.01
		c0,0.28-0.01,0.53-0.01,0.66c-0.19,0.14-0.43,0.26-0.71,0.4C88.27,68.43,87.95,68.28,88.34,67.54L88.34,67.54z M88.1,66.27
		c0.19-0.28,0.3-0.34,0.45-0.34c0.13,0.01,0.65,0.36,0.62,0.6c0.03,0.16,0.03,0.48,0.03,0.81c-0.39,0.05-0.66,0.09-1.09-0.27
		C88.03,67,88.01,66.41,88.1,66.27L88.1,66.27z M91.22,65.7c-0.33,0.16,0.44,0.47,0.39,0.45c-0.01,0.87-0.19,2.3,0.11,2.75
		c0.18,0.28,0.61,0.46,0.89,0.35c0.27-0.11,0.62-0.65,0.72-0.74c0.2-0.15,0.03-0.31-0.14-0.16c-0.17,0.16-0.62,0.04-0.68-0.11
		c-0.05-0.16-0.1-2.06-0.03-2.1c0,0,0.54-0.01,0.69-0.01c0.11,0,0.12-0.34,0.01-0.34c-0.2,0-0.63-0.04-0.66-0.12
		c-0.06-0.18,0.02-0.76,0.13-0.99c0.12-0.24-0.11-0.34-0.19-0.11C92.37,64.81,91.8,65.41,91.22,65.7L91.22,65.7z M91.38,61.74
		c0.03,0.82-0.39,1.69-0.86,2.08c0.81-0.21,0.91-0.69,1.35-1.26c0.24,0.36,0.7,0.8,1.03,0.98c0.23-0.15,0.89-0.89,1.04-1.05
		c-0.48-0.13-1.39-0.61-1.62-1.13c-0.18-0.38-0.14-0.56,0.04-0.86c0.16,0.21,1.28,0.72,1.78-0.13c-0.55-0.2-1.04-0.56-1.21-0.85
		c-0.15,0.12-0.64,0.66-0.91,0.83c-0.06-0.29-0.52-0.61-0.88-0.68c-0.12,0.13-0.98,0.78-1.37,0.98c-0.12,0.06-0.08,0.32,0.09,0.25
		c0.16-0.07,0.43-0.27,0.73-0.42C90.94,60.63,91.34,60.99,91.38,61.74L91.38,61.74z M95.24,61.87c0.1-0.5,0.45-0.7,0.61-0.85
		c0.23,0.25,0.46,0.54,0.8,0.54c0.33,0,0.68-0.15,0.79-0.29c-0.28-0.22-0.9-0.88-1.03-1.01c-0.32,0.18-1.7,0.89-1.82,1.72
		c-0.17,1.22,0.22,1.47,0.76,2.14c0.3,0.38,0.81,0.4,1.04,0.34c0.25-0.17,1.15-1.03,1.25-1.14c0.09-0.1-0.04-0.2-0.15-0.09
		c-0.11,0.1-0.07,0.15-0.22,0.17c-0.15,0.02-0.77,0.13-1.13-0.06C95.69,63.1,95.1,62.55,95.24,61.87L95.24,61.87z M94.56,65.78
		c-0.2,0.21-0.56,0.45-0.89,0.82c0.28,0.02,0.51,0.08,0.64,0.34c0.14,0.26,0.02,1.37,0.04,1.8c0.02,0.42,0.27,0.5,0.6,0.85
		c0.33-0.08,1.24-0.47,1.55-0.68c-0.03,0.34,0.4,0.72,0.66,0.8c0.17-0.19,0.36-0.29,0.61-0.52c-0.24-0.16-0.21-0.19-0.3-0.51
		c-0.07-0.31,0.02-1.5,0.03-2.01c-0.19-0.29-0.51-0.65-0.84-0.89c-0.23,0.21-0.54,0.49-0.9,0.87c0.27-0.04,0.8,0.07,0.83,0.3
		c0.02,0.29,0.06,0.94,0,1.44c-0.06,0.5-1.41,0.27-1.43-0.07c-0.03-0.35,0.07-1.35,0.08-1.82C95.03,66.2,94.91,66.04,94.56,65.78
		L94.56,65.78z M85.58,77.95V77.9c-0.78-0.11-1.4-0.66-2.11-0.93c-0.99-0.37-2.04,0.39-2.04,0.51c0,0.27,0.28,0.4,1.08-0.1
		c-0.63,0.73,0.08,1.32,0.08,1.32c-0.26-0.04-0.63-0.13-0.87-0.26c-0.05,0.26,0.31,0.36,0.49,0.47
		C83.54,79.45,84.41,78.17,85.58,77.95L85.58,77.95z M83.34,78.62c0,0,0.35-0.38,0.35-0.65c0-0.37-0.35-0.64-0.35-0.64
		c0.3,0.09,1.01,0.49,1.27,0.66L83.34,78.62L83.34,78.62z M76.06,68.55l0.38-0.42c-0.43-0.08-0.23-0.08-0.46-0.28l-0.01-1.75
		l-0.56-0.82l-0.21,0.03l-0.87,0.82c-0.23,0.2-0.03,0.3,0.24,0.08l0.58,0.3l0.01,1.85c0.05,0.23,0.25,0.28,0.53,0.57L76.06,68.55
		L76.06,68.55z M76.25,62.48c0.3,0.84,0.99,1.1,1.51,1.14c0.15-0.29,0.44-0.72,0.6-0.93c0.23-0.31,0-0.5-0.17-0.14
		c-0.13,0.27-0.8-0.03-1.04-0.26c-0.33-0.3-0.53-1.1-0.27-1.38c0.26-0.28,0.64-0.15,1.13-0.17c0.32-0.02,0.39-0.31,0.44-0.46
		c-0.15-0.07-0.39-0.2-0.69-0.39c-0.31,0.2-0.8,0.61-1.01,0.78C76.49,60.9,75.96,61.66,76.25,62.48L76.25,62.48z M77.51,67.09
		c-0.32,0.33-0.55,0.69-0.55,1.14c0.02,0.43,0.16,0.86,0.6,1.05c0.39-0.29,0.89-0.63,1.37-0.72c0.24,0.28,0.6,0.47,0.82,0.64
		c0.15-0.18,0.63-0.57,0.76-0.69c0.13-0.13,0-0.31-0.13-0.14c-0.1,0.16-0.44,0.04-0.54-0.12c0-0.18-0.18-2.12-0.1-2.21
		c-0.28-0.31-0.76-1.02-1.09-0.98c-0.47,0.05-1.18,0.72-1.33,0.94c-0.11,0.17,0.03,0.96,0.13,1.04
		C77.48,67.06,77.49,67.07,77.51,67.09L77.51,67.09z M78.75,67.26c-0.36,0.01-0.66-0.1-1.05-0.44c-0.07-0.06-0.14-0.5-0.06-0.65
		c0.17-0.27,0.17-0.36,0.32-0.35c0.12,0,0.83,0.43,0.8,0.66C78.79,66.64,78.77,66.95,78.75,67.26L78.75,67.26z M77.81,67.32
		c0.33,0.22,0.51,0.19,0.93,0.15c-0.02,0.22-0.03,0.43-0.03,0.52c0,0.1,0.04,0.18,0.07,0.26c-0.21,0.08-0.48,0.12-0.69,0.23
		C77.89,68.31,77.19,67.84,77.81,67.32L77.81,67.32z M80.5,63.72l0.39-0.42c-0.44-0.08-0.44-0.05-0.67-0.26l0.02-2.02l-0.38-0.56
		l-0.2,0.03l-0.88,0.81c-0.24,0.21-0.02,0.31,0.24,0.08l0.45,0.28l0.02,1.9c0.05,0.23,0.25,0.31,0.53,0.59L80.5,63.72L80.5,63.72z
		 M79.81,56.65c-0.18-0.01-0.45,0.32,0.6,0.43C80.58,57.1,80.8,56.71,79.81,56.65L79.81,56.65z M79.82,56.02
		c-0.17-0.01-0.45,0.47,0.61,0.43C80.59,56.45,80.72,56.07,79.82,56.02L79.82,56.02z M80.03,59.2l-0.45-0.47l-0.46,0.41l0.01,0.56
		l0.28,0.29h0.28l0.34-0.31V59.2L80.03,59.2z M79.11,54.87c-0.31-0.21-0.64-0.72-1.38-0.76c-0.75-0.03-1.59,0.64-1.86,1.07
		c-0.36,0.56,0.08,1.05,0.56,1.41c-0.3,0.26-0.72,0.66-1.11,1.02c0.16,0.17,1.01,0.57,1.49,0.56c0.72-0.02,1.39-0.39,1.81-0.72
		c0.75-0.6,0.49-1.23-0.27-1.68c-0.07-0.04-0.14-0.06-0.22-0.07C78.58,55.34,79,55,79.11,54.87L79.11,54.87z M77.2,56.43
		c0.25,0.11,0.51,0.23,0.79,0.39c0.4,0.23,0.2,0.66-0.24,0.86c-0.44,0.2-1.23-0.37-1.36-0.6C76.56,56.94,76.86,56.7,77.2,56.43
		L77.2,56.43z M78,55.37c-0.07,0.05-0.26,0.21-0.46,0.37c-0.12,0.02-0.24,0.03-0.37,0.02c-0.38-0.05-0.56-0.34-0.74-0.57
		c-0.18-0.24,0.29-0.44,0.51-0.42C77.18,54.81,77.7,55.08,78,55.37L78,55.37z M74.89,57.01c-1.11,0.28-1.63-0.61-1.74-0.85
		c0.45-0.46,1.21-1.21,1.67-1.59c-0.31-0.28-0.43-0.75-0.98-0.79c-0.48,0.01-1.58,0.55-1.78,1.96c-0.19,1.35,1.08,2.08,2.09,2.12
		c0.33,0,0.75-0.43,0.96-0.54C75.56,57.11,75.39,56.89,74.89,57.01L74.89,57.01z M73.07,55.9c-0.28-0.9-0.17-1.21,0.38-1.65
		c0.13,0.31,0.45,0.53,0.62,0.64C73.76,55.19,73.27,55.74,73.07,55.9L73.07,55.9z M71.79,55.09c0.19-0.19-0.01-0.32-0.18-0.16
		c-0.13-0.15-0.45-0.48-0.62-0.68c-0.18,0.15-0.6,0.4-0.83,0.53c-0.18-0.21-0.41-0.21-0.77-0.49c-0.2,0.15-0.65,0.48-0.89,0.77
		c0.42,0.12,0.74,0.15,0.77,0.51c0.02,0.3-0.03,2.12-0.01,2.45c0.23,0.05,0.5,0.03,0.83,0.01c0.03-0.26,0.01-2.55,0.01-2.8
		c0.12-0.07,0.25-0.14,0.31-0.19c0.13,0.1,0.4,0.49,0.61,0.61C71.19,55.54,71.61,55.28,71.79,55.09L71.79,55.09z M68.29,59.82
		c-0.48,0.04-1.18,0.61-1.38,1.09c-0.08,0.19,0.03,0.89,0.12,0.97c0.06,0.06,0.11,0.09,0.17,0.14c-0.32,0.29-0.61,0.54-0.6,0.98
		c0.01,0.42,0.35,0.79,0.78,0.99c0.23-0.35,0.59-0.57,0.98-0.66c0.03,0.34,0.11,0.58,0.33,0.75c0.16-0.18,0.79-0.72,0.91-0.85
		c0.13-0.13,0.03-0.28-0.12-0.13c-0.09,0.09-0.32-0.04-0.39-0.15c0-0.18,0-2.12,0.08-2.21C68.88,60.44,68.61,59.78,68.29,59.82
		L68.29,59.82z M68.33,61.78c-0.54,0.35-0.71,0.34-1.08-0.08c-0.18-0.21-0.17-0.61-0.08-0.77c0.17-0.26,0.46-0.53,0.6-0.52
		c0.12,0.01,0.55,0.53,0.52,0.76C68.31,61.3,68.32,61.54,68.33,61.78L68.33,61.78z M68.33,62.75c0,0.1,0,0.19,0,0.29
		c-0.1,0.03-0.22,0.05-0.37,0.12c-0.2-0.17-1.13-0.47-0.52-0.97c0.37,0.22,0.52,0.05,0.88-0.18C68.33,62.34,68.33,62.64,68.33,62.75
		L68.33,62.75z M67.91,58.65c-0.07-0.08-0.19-0.22-0.2-0.39c0-0.11,0.01-1.28,0.01-1.42c0-0.14-0.28-0.12-0.28,0
		c-0.01,0.21,0.02,0.56-0.17,0.85c-0.51,0.79-1.49,1.12-2.17,0.15c-0.23-0.32-0.29-0.81-0.32-1.16c-0.05-0.47,0.31-1.07,0.33-1.12
		c0.87-1.14,2.08-0.29,2.18,0.17c0.06,0.31,0.13,0.69,0.13,0.89c-0.01,0.13,0.28,0.12,0.28-0.02c0-0.14,0.01-1.9,0.01-2.02
		c0.01-0.11-0.23-0.15-0.24,0c-0.01,0.28-0.18,0.3-0.39,0.23c-0.44-0.13-1.42-0.34-1.99-0.01c-0.5,0.29-1.27,0.98-1.25,1.85
		c0.02,1.43,0.55,1.55,1.18,1.93c0.59,0.34,1.39,0.12,2.13-0.09c0.29-0.08,0.33,0.11,0.47,0.31C67.89,59.12,68.08,58.91,67.91,58.65
		L67.91,58.65z M63.96,60.67c-0.49,0.76-0.76,1.95,0.09,2.64c0.4,0.34,0.74,0.6,1.56,0.45c0.16-0.33,0.24-0.43,0.52-0.81
		c-0.57,0.09-1-0.01-1.42-0.32c-0.85-0.66-0.59-1.72-0.34-2.09c0.46-0.68,1.11,0.29,1.23,0.43c0.15-0.18,0.41-0.44,0.67-0.64
		c-0.25-0.34-0.46-0.65-0.63-0.85C65.1,59.68,64.3,60.16,63.96,60.67L63.96,60.67z M64.31,67.2c-0.18,1.36,1.1,2.17,1.71,2.43
		c0.16-0.31,0.47-0.82,0.78-1.17c0.23-0.27-0.02-0.35-0.23-0.14c-0.28,0.31-1.13,0.02-1.35-0.39c0.41-0.31,1.47-1.2,1.94-1.58
		c-0.31-0.29-0.78-1-0.85-1.41C65.89,65.21,64.52,65.78,64.31,67.2L64.31,67.2z M65.63,65.73c0.12,0.31,0.52,0.91,0.69,1.02
		c-0.31,0.31-1.06,0.82-1.27,0.96C64.68,67.23,64.47,66.44,65.63,65.73L65.63,65.73z M68.43,65.23c-0.27,0.25-0.47,0.48-0.86,0.79
		c0.18,0.21,0.49,0.47,0.51,0.83c0.02,0.36,0.01,2.03,0.03,2.45c0.28,0,0.23,0.03,0.72,0.01c-0.05-0.28-0.01-2.45-0.01-2.76
		c0.18-0.17,0.21-0.2,0.42-0.36c0.15,0.13,0.5,0.21,0.5,0.44c0,0.23,0.07,1.26-0.01,1.64c-0.1,0.46-0.06,0.8,0.19,1.27
		c0.19-0.21,0.9-0.71,1.05-0.83c0.15-0.13,0.07-0.23-0.12-0.18c-0.21,0.05-0.25,0.09-0.25-0.05c0-0.25-0.1-1.38-0.11-2.1
		c-0.03-0.72-0.38-0.94-0.58-1.04c-0.21,0.23-0.67,0.52-0.95,0.76C68.77,65.94,68.66,65.6,68.43,65.23L68.43,65.23z M71.34,63.48
		c0.24-0.19,0.42-0.52,0.52-0.6c0.19-0.15,0.03-0.31-0.13-0.16c-0.13,0.12-0.46-0.16-0.47-0.18c-0.11-0.13-0.27-1.78-0.19-1.82
		c0,0,1.05-0.13,1.19-0.13c0.1,0.01,0.12-0.33,0.01-0.33c-0.17,0-0.97,0.11-1,0.03c-0.04-0.18-0.15-0.76,0.11-1.27
		c0.12-0.22,0-0.43-0.09-0.21c-0.09,0.23-0.75,1.25-1.18,1.42c-0.35,0.14-0.31,0.22-0.08,0.28c0.18,0.03,0.36,0.25,0.33,0.24
		c-0.04,0.85-0.12,1.9,0.15,2.34C70.67,63.38,71.13,63.67,71.34,63.48L71.34,63.48z M74.96,63.86c-0.13,0.26-0.34,0.49-0.72,0.67
		c0.23,0.2,0.54,0.46,0.74,0.6c0.23-0.26,0.44-0.49,0.71-0.74C75.42,64.33,75.11,64.19,74.96,63.86L74.96,63.86z M73.3,62.92
		c0.33-0.03,0.87,0.17,1.47,0.12c0.71-0.05,1.27-1.15,0.96-2.01c-0.29-0.81-1.19-0.67-1.8-0.86c-0.56-0.15-0.79-0.51-0.18-0.91
		c0.72-0.46,1.61,0.28,1.7,0.44c0.13,0.24,0.24,0.23,0.24-0.08c0.02-0.67-0.04-0.29-0.11-0.93c-0.02-0.23-0.19-0.25-0.2-0.03
		c-0.01,0.22-0.28,0.15-0.49,0.15c-0.21,0-0.81-0.1-1.33,0.19c-0.33,0.19-1.09,0.78-0.66,1.49c0.25,0.41,1.7,0.75,2.06,0.99
		c0.36,0.24,0.44,0.85,0.1,1.12c-0.43,0.34-1.6,0.05-1.79-0.15c-0.24-0.26-0.33-0.48-0.38-0.78c-0.05-0.31-0.31-0.29-0.31,0
		c0,0.28,0.07,1.26,0.12,1.49c0.05,0.24,0.28,0.16,0.31-0.02C73.03,62.98,73.15,62.94,73.3,62.92L73.3,62.92z M71.78,65.96
		c-0.28,0.21,0.33,0.5,0.27,0.48c0.02,0.85-0.1,1.73,0.19,2.16c0.18,0.27,0.75,0.47,0.85,0.21c0.1-0.26,0.53-0.79,0.63-0.88
		c0.18-0.16,0.02-0.3-0.13-0.15c-0.31,0.33-0.49,0.18-0.72-0.04c-0.11-0.13-0.15-1.32-0.07-1.35c0,0,0.58-0.08,0.71-0.08
		c0.11,0,0.1-0.33-0.01-0.33c-0.17,0-0.69,0-0.72-0.08c-0.06-0.16,0.1-0.97,0.13-1.33c0.02-0.25-0.11-0.33-0.18-0.1
		C72.66,64.71,72.11,65.73,71.78,65.96L71.78,65.96z"/>
</g>
</svg>
